<svg width="18" height="19" viewBox="0 0 18 19" fill="none" xmlns="http://www.w3.org/2000/svg">
<path d="M17.7547 8.14999L15.961 4.56054C15.9032 4.44489 15.8233 4.34175 15.7257 4.257C15.628 4.17226 15.5147 4.10757 15.3921 4.06663C15.2695 4.02569 15.14 4.00931 15.011 4.01841C14.8821 4.02751 14.7562 4.06192 14.6405 4.11968L12.8433 5.01827L9.10764 4.02968C9.03709 4.0114 8.96304 4.0114 8.89249 4.02968L5.15678 5.01827L3.3603 4.11968C3.24462 4.06181 3.11866 4.02732 2.98964 4.01816C2.86061 4.009 2.73105 4.02536 2.60835 4.0663C2.48565 4.10724 2.37222 4.17197 2.27455 4.25677C2.17688 4.34158 2.09688 4.4448 2.03913 4.56054L0.245456 8.14999C0.128762 8.38347 0.109576 8.65374 0.192117 8.90137C0.274659 9.14899 0.452169 9.35369 0.685612 9.47046L2.5946 10.4253L6.50468 13.2181C6.54705 13.2487 6.59474 13.2711 6.6453 13.2842L11.1453 14.4092C11.1796 14.4177 11.2148 14.422 11.2501 14.4219C11.3619 14.4218 11.4691 14.3773 11.5482 14.2981L15.4372 10.4091L17.3145 9.47046C17.548 9.35369 17.7255 9.14899 17.808 8.90137C17.8906 8.65374 17.8714 8.38347 17.7547 8.14999ZM14.0281 10.6222L11.5109 8.60562C11.4297 8.54065 11.3274 8.50794 11.2236 8.51378C11.1198 8.51962 11.0218 8.56359 10.9484 8.63726C9.6371 9.95843 8.17108 9.79179 7.23663 9.19413C7.21826 9.18281 7.20274 9.1674 7.19128 9.14911C7.17982 9.13082 7.17272 9.11014 7.17053 9.08867C7.16804 9.06898 7.16997 9.04898 7.17617 9.03013C7.18237 9.01128 7.1927 8.99404 7.20639 8.97968L10.2959 5.98437H12.6767L14.6743 9.97952L14.0281 10.6222ZM0.992175 8.63445C0.980547 8.5992 0.983327 8.56078 0.999909 8.52757L2.79428 4.93742C2.80608 4.91401 2.82418 4.89437 2.84654 4.8807C2.8689 4.86703 2.89464 4.85989 2.92085 4.86007C2.94257 4.86009 2.96399 4.86515 2.98342 4.87484L4.54507 5.65531L2.62413 9.49999L1.06249 8.71952C1.04564 8.71082 1.03072 8.69879 1.01864 8.68417C1.00655 8.66955 0.997551 8.65264 0.992175 8.63445ZM11.1207 13.5331L6.93007 12.4855L3.35116 9.9289L5.40288 5.82616L9.00007 4.87413L10.0407 5.14976C9.96113 5.16523 9.88782 5.2036 9.82975 5.26015L6.61647 8.37851C6.51214 8.48278 6.43258 8.60916 6.38366 8.74831C6.33474 8.88746 6.31772 9.03583 6.33385 9.18245C6.34998 9.32906 6.39886 9.47018 6.47686 9.59537C6.55487 9.72055 6.66001 9.82661 6.78452 9.9057C8.20624 10.8141 9.931 10.6433 11.2705 9.49156L13.4298 11.2226L11.1207 13.5331ZM17.008 8.63445C17.0022 8.65199 16.993 8.66823 16.9809 8.68222C16.9689 8.69622 16.9541 8.7077 16.9376 8.71601L15.376 9.49999L13.4551 5.65531L15.0167 4.87484C15.0332 4.86653 15.0513 4.86157 15.0697 4.86025C15.0882 4.85892 15.1067 4.86125 15.1243 4.8671C15.1418 4.87289 15.1581 4.88208 15.1721 4.89414C15.1861 4.90621 15.1975 4.92091 15.2058 4.93742L17.0002 8.52757C17.0168 8.56078 17.0196 8.5992 17.008 8.63445ZM9.13296 15.7894C9.10588 15.898 9.03683 15.9913 8.94098 16.0489C8.84512 16.1065 8.73031 16.1237 8.62178 16.0967L5.68764 15.3634C5.63701 15.3504 5.5893 15.328 5.54702 15.2973L3.69288 13.9747C3.64777 13.9424 3.60947 13.9015 3.58017 13.8544C3.55086 13.8072 3.53113 13.7548 3.52208 13.7001C3.50382 13.5895 3.53023 13.4762 3.59549 13.3851C3.66076 13.294 3.75955 13.2326 3.87011 13.2143C3.92486 13.2053 3.98085 13.2071 4.03489 13.2197C4.08893 13.2323 4.13996 13.2554 4.18507 13.2877L5.9703 14.5625L8.82569 15.2762C8.87958 15.2896 8.93028 15.3136 8.97488 15.3467C9.01948 15.3798 9.05711 15.4214 9.08559 15.4691C9.11407 15.5168 9.13286 15.5697 9.14087 15.6246C9.14887 15.6796 9.14595 15.7356 9.13225 15.7894H9.13296Z" fill="#071336"/>
</svg>
