<svg width="18" height="19" viewBox="0 0 18 19" fill="none" xmlns="http://www.w3.org/2000/svg">
<path d="M16.3125 12.4531H15.6094V5.5625C15.6094 5.15224 15.4464 4.75879 15.1563 4.46869C14.8662 4.1786 14.4728 4.01562 14.0625 4.01562H3.9375C3.52724 4.01562 3.13379 4.1786 2.84369 4.46869C2.5536 4.75879 2.39062 5.15224 2.39062 5.5625V12.4531H1.6875C1.57561 12.4531 1.46831 12.4976 1.38919 12.5767C1.31007 12.6558 1.26562 12.7631 1.26562 12.875V14C1.26563 14.4103 1.4286 14.8037 1.71869 15.0938C2.00879 15.3839 2.40224 15.5469 2.8125 15.5469H15.1875C15.5978 15.5469 15.9912 15.3839 16.2813 15.0938C16.5714 14.8037 16.7344 14.4103 16.7344 14V12.875C16.7344 12.7631 16.6899 12.6558 16.6108 12.5767C16.5317 12.4976 16.4244 12.4531 16.3125 12.4531ZM3.23438 5.5625C3.23438 5.37602 3.30845 5.19718 3.44032 5.06532C3.57218 4.93345 3.75102 4.85938 3.9375 4.85938H14.0625C14.249 4.85938 14.4278 4.93345 14.5597 5.06532C14.6915 5.19718 14.7656 5.37602 14.7656 5.5625V12.4531H3.23438V5.5625ZM15.8906 14C15.8906 14.1865 15.8165 14.3653 15.6847 14.4972C15.5528 14.629 15.374 14.7031 15.1875 14.7031H2.8125C2.62602 14.7031 2.44718 14.629 2.31532 14.4972C2.18345 14.3653 2.10938 14.1865 2.10938 14V13.2969H15.8906V14ZM10.5469 6.6875C10.5469 6.79939 10.5024 6.90669 10.4233 6.98581C10.3442 7.06493 10.2369 7.10938 10.125 7.10938H7.875C7.76311 7.10938 7.65581 7.06493 7.57669 6.98581C7.49757 6.90669 7.45312 6.79939 7.45312 6.6875C7.45312 6.57561 7.49757 6.46831 7.57669 6.38919C7.65581 6.31007 7.76311 6.26562 7.875 6.26562H10.125C10.2369 6.26562 10.3442 6.31007 10.4233 6.38919C10.5024 6.46831 10.5469 6.57561 10.5469 6.6875Z" fill="#071336"/>
</svg>
