<svg width="18" height="19" viewBox="0 0 18 19" fill="none" xmlns="http://www.w3.org/2000/svg">
<path d="M9 2.32812C7.58154 2.32812 6.19493 2.74875 5.01552 3.5368C3.83611 4.32486 2.91688 5.44495 2.37405 6.75544C1.83123 8.06593 1.68921 9.50796 1.96593 10.8992C2.24266 12.2904 2.92572 13.5683 3.92872 14.5713C4.93173 15.5743 6.20963 16.2573 7.60084 16.5341C8.99205 16.8108 10.4341 16.6688 11.7446 16.1259C13.055 15.5831 14.1751 14.6639 14.9632 13.4845C15.7513 12.3051 16.1719 10.9185 16.1719 9.5C16.1696 7.59859 15.4133 5.77569 14.0688 4.43119C12.7243 3.08668 10.9014 2.33036 9 2.32812ZM9 15.8281C7.74842 15.8281 6.52494 15.457 5.48429 14.7616C4.44363 14.0663 3.63254 13.078 3.15358 11.9217C2.67462 10.7654 2.5493 9.49298 2.79347 8.26544C3.03764 7.03791 3.64034 5.91034 4.52534 5.02534C5.41035 4.14034 6.53791 3.53764 7.76545 3.29347C8.99298 3.0493 10.2654 3.17461 11.4217 3.65357C12.578 4.13254 13.5663 4.94363 14.2616 5.98428C14.957 7.02494 15.3281 8.24841 15.3281 9.5C15.3263 11.1778 14.659 12.7863 13.4726 13.9726C12.2863 15.159 10.6778 15.8263 9 15.8281ZM13.3594 9.5C13.3594 9.61189 13.3149 9.71919 13.2358 9.79831C13.1567 9.87743 13.0494 9.92188 12.9375 9.92188H9C8.88811 9.92188 8.78081 9.87743 8.70169 9.79831C8.62258 9.71919 8.57813 9.61189 8.57813 9.5V5.5625C8.57813 5.45061 8.62258 5.34331 8.70169 5.26419C8.78081 5.18507 8.88811 5.14062 9 5.14062C9.11189 5.14062 9.2192 5.18507 9.29831 5.26419C9.37743 5.34331 9.42188 5.45061 9.42188 5.5625V9.07812H12.9375C13.0494 9.07812 13.1567 9.12257 13.2358 9.20169C13.3149 9.28081 13.3594 9.38811 13.3594 9.5Z" fill="#071336"/>
</svg>
