<svg width="18" height="19" viewBox="0 0 18 19" fill="none" xmlns="http://www.w3.org/2000/svg">
<path d="M15.1875 5.98438C15.4486 5.98438 15.699 5.88066 15.8836 5.69606C16.0682 5.51145 16.1719 5.26107 16.1719 5V3.875C16.1719 3.61393 16.0682 3.36355 15.8836 3.17894C15.699 2.99434 15.4486 2.89062 15.1875 2.89062H2.8125C2.55143 2.89062 2.30105 2.99434 2.11644 3.17894C1.93184 3.36355 1.82813 3.61393 1.82812 3.875V5C1.82812 5.26107 1.93184 5.51145 2.11644 5.69606C2.30105 5.88066 2.55143 5.98438 2.8125 5.98438H2.95312V13.0156H2.25C2.13811 13.0156 2.03081 13.0601 1.95169 13.1392C1.87257 13.2183 1.82812 13.3256 1.82812 13.4375C1.82812 13.5494 1.87257 13.6567 1.95169 13.7358C2.03081 13.8149 2.13811 13.8594 2.25 13.8594H8.57812V15.3247C8.21891 15.4265 7.90866 15.6548 7.7046 15.9675C7.50054 16.2802 7.41645 16.6561 7.46785 17.0259C7.51926 17.3957 7.70268 17.7344 7.98428 17.9796C8.26587 18.2248 8.62664 18.3598 9 18.3598C9.37336 18.3598 9.73413 18.2248 10.0157 17.9796C10.2973 17.7344 10.4807 17.3957 10.5321 17.0259C10.5835 16.6561 10.4995 16.2802 10.2954 15.9675C10.0913 15.6548 9.78109 15.4265 9.42188 15.3247V13.8594H15.75C15.8619 13.8594 15.9692 13.8149 16.0483 13.7358C16.1274 13.6567 16.1719 13.5494 16.1719 13.4375C16.1719 13.3256 16.1274 13.2183 16.0483 13.1392C15.9692 13.0601 15.8619 13.0156 15.75 13.0156H15.0469V5.98438H15.1875ZM9.70312 16.8125C9.70312 16.9516 9.66189 17.0875 9.58463 17.2031C9.50737 17.3188 9.39755 17.4089 9.26907 17.4621C9.14059 17.5153 8.99922 17.5292 8.86283 17.5021C8.72643 17.475 8.60115 17.408 8.50282 17.3097C8.40448 17.2114 8.33752 17.0861 8.31039 16.9497C8.28326 16.8133 8.29718 16.6719 8.3504 16.5434C8.40362 16.4149 8.49374 16.3051 8.60936 16.2279C8.72499 16.1506 8.86094 16.1094 9 16.1094C9.18648 16.1094 9.36532 16.1835 9.49718 16.3153C9.62905 16.4472 9.70312 16.626 9.70312 16.8125ZM2.67188 5V3.875C2.67188 3.8377 2.68669 3.80194 2.71306 3.77556C2.73944 3.74919 2.7752 3.73438 2.8125 3.73438H15.1875C15.2248 3.73438 15.2606 3.74919 15.2869 3.77556C15.3133 3.80194 15.3281 3.8377 15.3281 3.875V5C15.3281 5.0373 15.3133 5.07306 15.2869 5.09944C15.2606 5.12581 15.2248 5.14062 15.1875 5.14062H2.8125C2.7752 5.14062 2.73944 5.12581 2.71306 5.09944C2.68669 5.07306 2.67188 5.0373 2.67188 5ZM14.2031 13.0156H3.79688V5.98438H14.2031V13.0156Z" fill="#071336"/>
</svg>
