<svg width="40" height="40" viewBox="0 0 40 40" fill="none" xmlns="http://www.w3.org/2000/svg">
<rect width="40" height="40" rx="8" fill="#75FA9E"/>
<path d="M21.2543 14.0638L22.2855 13.0325C22.6914 12.6265 23.1733 12.3045 23.7036 12.0848C24.234 11.865 24.8024 11.752 25.3765 11.752C25.9505 11.752 26.519 11.865 27.0493 12.0848C27.5797 12.3045 28.0615 12.6265 28.4674 13.0325C28.8734 13.4384 29.1954 13.9203 29.4152 14.4506C29.6349 14.981 29.748 15.5494 29.748 16.1235C29.748 16.6975 29.6349 17.266 29.4152 17.7963C29.1954 18.3267 28.8734 18.8085 28.4674 19.2144L26.1818 21.5L25.2124 22.4694C24.8061 22.8758 24.3236 23.1981 23.7926 23.4178C23.2615 23.6376 22.6924 23.7505 22.1177 23.75C21.543 23.7496 20.974 23.6359 20.4433 23.4153C19.9126 23.1948 19.4306 22.8717 19.0249 22.4647C18.6049 22.0449 18.2752 21.5437 18.056 20.9919C17.8367 20.44 17.7326 19.8492 17.7499 19.2556" stroke="#071336" stroke-width="2" stroke-linecap="round" stroke-linejoin="round"/>
<path d="M18.7457 25.9362L17.7145 26.9674C17.3081 27.3738 16.8257 27.6961 16.2946 27.9159C15.7636 28.1356 15.1945 28.2485 14.6198 28.2481C14.0451 28.2477 13.4761 28.1339 12.9454 27.9134C12.4147 27.6928 11.9327 27.3698 11.527 26.9628C10.7095 26.1424 10.2509 25.0311 10.252 23.873C10.253 22.7148 10.7136 21.6044 11.5326 20.7856L14.7876 17.5306C15.1935 17.1246 15.6753 16.8025 16.2057 16.5828C16.736 16.3631 17.3045 16.25 17.8785 16.25C18.4526 16.25 19.021 16.3631 19.5514 16.5828C20.0817 16.8025 20.5636 17.1246 20.9695 17.5306C21.3912 17.9503 21.7224 18.4521 21.9426 19.0048C22.1629 19.5576 22.2675 20.1496 22.2501 20.7443" stroke="#071336" stroke-width="2" stroke-linecap="round" stroke-linejoin="round"/>
</svg>
