<svg width="40" height="40" viewBox="0 0 40 40" fill="none" xmlns="http://www.w3.org/2000/svg">
<rect width="40" height="40" rx="8" fill="#75FA9E"/>
<path d="M20 24.5C24.1421 24.5 27.5 21.1421 27.5 17C27.5 12.8579 24.1421 9.5 20 9.5C15.8579 9.5 12.5 12.8579 12.5 17C12.5 21.1421 15.8579 24.5 20 24.5Z" stroke="#071336" stroke-width="2" stroke-linecap="round" stroke-linejoin="round"/>
<path d="M20 21.5C22.4853 21.5 24.5 19.4853 24.5 17C24.5 14.5147 22.4853 12.5 20 12.5C17.5147 12.5 15.5 14.5147 15.5 17C15.5 19.4853 17.5147 21.5 20 21.5Z" stroke="#071336" stroke-width="2" stroke-linecap="round" stroke-linejoin="round"/>
<path d="M24.5 23V30.5L19.9991 28.25L15.5 30.5V23.0009" stroke="#071336" stroke-width="2" stroke-linecap="round" stroke-linejoin="round"/>
</svg>
