<svg width="35" height="36" viewBox="0 0 35 36" fill="none" xmlns="http://www.w3.org/2000/svg">
<g clip-path="url(#clip0_14325_1024)">
<path d="M17.5 36C27.165 36 35 27.9411 35 18C35 8.05887 27.165 0 17.5 0C7.83502 0 0 8.05887 0 18C0 27.9411 7.83502 36 17.5 36Z" fill="#F0F0F0"/>
<path d="M16.7395 18.0001H35.0003C35.0003 16.3755 34.7898 14.8016 34.3975 13.3044H16.7395V18.0001Z" fill="#D80027"/>
<path d="M16.7395 8.60901H32.4318C31.3605 6.81098 29.9908 5.22171 28.3938 3.91333H16.7395V8.60901Z" fill="#D80027"/>
<path d="M17.5014 36.0004C21.62 36.0004 25.4055 34.5362 28.3949 32.0874H6.60791C9.59727 34.5362 13.3828 36.0004 17.5014 36.0004Z" fill="#D80027"/>
<path d="M2.56943 27.3912H32.4324C33.2924 25.9478 33.9594 24.37 34.398 22.6956H0.60376C1.04242 24.37 1.7094 25.9478 2.56943 27.3912Z" fill="#D80027"/>
<path d="M8.10633 2.81095H9.70108L8.21769 3.91943L8.78432 5.71303L7.30099 4.60455L5.81766 5.71303L6.30711 4.16355C5.00104 5.28258 3.85629 6.59363 2.91293 8.05444H3.42392L2.47967 8.76002C2.33256 9.01245 2.19146 9.26887 2.05625 9.5291L2.50715 10.9565L1.66592 10.3279C1.45681 10.7835 1.26554 11.2495 1.09361 11.7252L1.59038 13.2979H3.42392L1.94052 14.4064L2.50715 16.2L1.02382 15.0915L0.135283 15.7556C0.0463477 16.4909 0 17.2399 0 18H17.5C17.5 8.05894 17.5 6.88697 17.5 0C14.0429 0 10.8203 1.03148 8.10633 2.81095ZM8.78432 16.2L7.30099 15.0915L5.81766 16.2L6.38429 14.4064L4.90089 13.2979H6.73442L7.30099 11.5043L7.86755 13.2979H9.70108L8.21769 14.4064L8.78432 16.2ZM8.21769 9.16291L8.78432 10.9565L7.30099 9.84804L5.81766 10.9565L6.38429 9.16291L4.90089 8.05444H6.73442L7.30099 6.26084L7.86755 8.05444H9.70108L8.21769 9.16291ZM15.0615 16.2L13.5782 15.0915L12.0948 16.2L12.6615 14.4064L11.1781 13.2979H13.0116L13.5782 11.5043L14.1447 13.2979H15.9783L14.4949 14.4064L15.0615 16.2ZM14.4949 9.16291L15.0615 10.9565L13.5782 9.84804L12.0948 10.9565L12.6615 9.16291L11.1781 8.05444H13.0116L13.5782 6.26084L14.1447 8.05444H15.9783L14.4949 9.16291ZM14.4949 3.91943L15.0615 5.71303L13.5782 4.60455L12.0948 5.71303L12.6615 3.91943L11.1781 2.81095H13.0116L13.5782 1.01735L14.1447 2.81095H15.9783L14.4949 3.91943Z" fill="#0052B4"/>
</g>
<defs>
<clipPath id="clip0_14325_1024">
<rect width="35" height="36" fill="white"/>
</clipPath>
</defs>
</svg>
